# xmcd CD database file
#
# Track frame offsets:
#	150
#	20048
#	36555
#	48158
#	62185
#	74168
#	89820
#	108340
#	127175
#	141948
#	156133
#	172703
#	184073
#	203250
#	223195
#	238353
#	248395
#	260942
#	276408
#	295580
#
# Disc length: 4123 seconds
#
# Revision: 0
# Processed by: cddbd v1.5PL3 Copyright (c) Steve Scherf et al.
# Submitted via: CDex 1.50Beta7
#
DISCID=40101914
DTITLE=Olon CD - Nederlandse country special
DYEAR=2004
DGENRE=Country
TTITLE0=Sandra Mooy - I'll be all smiles tonight
TTITLE1=Richard Schneider - Holding on
TTITLE2=Ranch House Favorites - Hangover Tavern
TTITLE3=Jody Lynn Mitchell - Baby gonna leave me now
TTITLE4=B5 - Don't tell me it's over
TTITLE5=Kathy Bloom - That train
TTITLE6=Ruud Hermans - She rolls the dice
TTITLE7=Coincidence - Miracle
TTITLE8=Carmen Steneker - The one I love
TTITLE9=Audrey Smits - Mamma
TTITLE10=Dixie Aces - No more running around
TTITLE11=Leo van Reeven - Freight train/Yakety Axe
TTITLE12=Jacqueline van de Griend - Even cowgirls get the blues
TTITLE13=René Wingelaar - Nebreska Plains
TTITLE14=Country Trail Band - Tokens of your wonderous love
TTITLE15=Terri White - Tonight my baby's coming home
TTITLE16=Doreen - Bill Bailey
TTITLE17=Colonel Hammond's Four - Feel like coming home
TTITLE18=The Spokane Chiefs - Fly on (Tears upon the desert ground)
TTITLE19=Jos Jongeling - Elle a le feu sacré
EXTD=YEAR: 2004
EXTT0=
EXTT1=
EXTT2=
EXTT3=
EXTT4=
EXTT5=
EXTT6=
EXTT7=
EXTT8=
EXTT9=
EXTT10=
EXTT11=
EXTT12=
EXTT13=
EXTT14=
EXTT15=
EXTT16=
EXTT17=
EXTT18=
EXTT19=
PLAYORDER=
